<svg id="Layer_1" data-name="Layer 1" xmlns="http://www.w3.org/2000/svg" viewBox="0 0 1366 768"><defs><style>.cls-1{fill:#fff;}.cls-1,.cls-3,.cls-5{stroke:#000;stroke-miterlimit:10;}.cls-2,.cls-3{fill:blue;}.cls-4,.cls-5{fill:#9797ce;}</style></defs><title>first-section</title><path class="cls-1" d="M696.5,354.5" transform="translate(-0.5 -0.5)"/><path class="cls-2" d="M.5,501.5a2009.15,2009.15,0,0,0,661-151,2008.91,2008.91,0,0,0,559-350h146v426a1234.49,1234.49,0,0,1-355,175,1236,1236,0,0,1-444,51l-567-51Z" transform="translate(-0.5 -0.5)"/><path class="cls-3" d="M-292.5,157.5" transform="translate(-0.5 -0.5)"/><path class="cls-4" d="M591.45,653.88,1244.5,767.5l122,1q-.25-170.75-.5-341.5Z" transform="translate(-0.5 -0.5)"/><path class="cls-5" d="M1467.5,563.5" transform="translate(-0.5 -0.5)"/><path class="cls-4" d="M571,828" transform="translate(-0.5 -0.5)"/></svg>